<?xml version="1.0" standalone="no"?>
<!DOCTYPE svg PUBLIC "-//W3C//DTD SVG 20010904//EN"
 "http://www.w3.org/TR/2001/REC-SVG-20010904/DTD/svg10.dtd">
<svg version="1.0" xmlns="http://www.w3.org/2000/svg"
 width="117.000000pt" height="117.000000pt" viewBox="0 0 117.000000 117.000000"
 preserveAspectRatio="xMidYMid meet">
<metadata>
Created by potrace 1.14, written by Peter Selinger 2001-2017
</metadata>
<g transform="translate(0.000000,117.000000) scale(0.100000,-0.100000)"
fill="#000000" stroke="none">
<path d="M393 994 l-173 -174 0 -58 0 -58 175 -1 c97 0 178 -3 181 -6 4 -3 4
-13 1 -22 -5 -13 -33 -15 -182 -15 l-175 0 0 -122 0 -123 300 1 c244 0 303 -3
312 -14 9 -10 9 -15 -1 -21 -7 -5 -148 -8 -313 -7 l-299 1 6 -50 c18 -148 139
-276 290 -304 158 -30 315 50 387 196 29 60 32 75 36 183 l4 118 -295 0 c-163
0 -301 3 -306 7 -6 3 -8 12 -4 20 4 13 50 15 304 15 l299 0 0 130 0 130 -175
175 c-97 96 -181 175 -188 174 -7 0 -90 -79 -184 -175z"/>
</g>
</svg>
